<svg width="349" height="441" viewBox="0 0 349 441" fill="none" xmlns="http://www.w3.org/2000/svg">
<g opacity="0.5">
<path d="M59.8222 112.305C66.6337 136.239 75.1988 158.088 85.3488 177.103C94.0264 193.363 104.48 209.158 116.752 213.011C129.024 216.865 140.844 207.472 149.784 191.302C154.413 182.933 158.109 173.191 161.341 162.688C164.304 153.067 167.227 140.304 172.95 135.817C177.668 132.115 183.425 134.826 187.266 140.926C192.144 148.663 193.312 161.211 192.795 172.801C191.669 198.191 186.106 220.972 186.795 246.963C187.309 266.585 190.309 290.249 200.066 300.358C209.824 310.468 219.663 300.551 227.757 289.689C231.644 284.472 236.669 275.491 241.808 276.242C248.092 277.175 251.628 291.859 254.445 300.912C261.321 322.974 270.753 336.901 284.38 338.861C290.115 339.689 291.869 325.044 285.385 324.105C279.245 323.228 273.345 317.577 269.12 308.937C265.26 301.034 262.984 290.76 259.829 281.884C254.168 265.952 245.659 257.497 235.748 263.726C231.288 266.534 227.394 271.573 223.568 276.715C219.742 281.856 215.308 289.466 210.487 289.821C198.635 290.684 196.435 253.633 196.543 237.805C196.796 200.884 214.41 139.908 187.301 122.216C177.333 115.717 166.588 121.219 159.714 136.575C155.84 145.232 153.432 155.801 150.162 165.257C146.524 175.773 141.877 185.705 136.214 192.193C122.606 207.823 108.733 193.265 98.0399 175.391C86.1044 155.435 76.3657 131.142 68.7838 104.469C66.4862 96.4055 57.2304 103.223 59.8155 112.329L59.8222 112.305Z" fill="#002748"/>
<path d="M272.376 289.59C274.7 298.828 277.024 308.065 279.347 317.303C280.965 323.744 284.357 332.604 279.457 336.009C275.699 338.631 270.89 338.858 266.925 340.149C261.916 341.782 256.92 343.428 251.912 345.061C245.473 347.161 248.389 361.216 254.04 359.352C260.925 357.095 267.8 354.843 274.684 352.586C279.483 351.014 285.672 350.531 289.436 343.712C293.199 336.893 292.346 328.114 290.414 319.919C287.524 307.643 284.317 295.611 281.261 283.472C279.205 275.289 269.839 279.448 272.371 289.553L272.376 289.59Z" fill="#002748"/>
</g>
</svg>
