<svg width="152" height="134" viewBox="0 0 152 134" fill="none" xmlns="http://www.w3.org/2000/svg">
<path d="M40.5968 72.3133C40.7935 73.1591 40.7946 74.1558 40.6 75.0842C40.4053 76.0127 40.0308 76.7969 39.5589 77.2642C39.0869 77.7315 38.5562 77.8437 38.0834 77.5761C37.6106 77.3086 37.2345 76.6832 37.0379 75.8374C36.8412 74.9917 36.8401 73.995 37.0348 73.0665C37.2294 72.1381 37.6039 71.3539 38.0759 70.8866C38.5478 70.4193 39.0785 70.3071 39.5513 70.5746C40.0241 70.8422 40.4002 71.4676 40.5968 72.3133Z" fill="#001133"/>
<path d="M53.9293 59.211C54.1267 60.0598 54.1278 61.0601 53.9325 61.9919C53.7371 62.9238 53.3612 63.7107 52.8876 64.1797C52.4139 64.6487 51.8813 64.7614 51.4068 64.4929C50.9323 64.2243 50.5548 63.5966 50.3575 62.7479C50.1601 61.8991 50.159 60.8987 50.3544 59.9669C50.5497 59.0351 50.9256 58.2481 51.3992 57.7791C51.8729 57.31 52.4055 57.1974 52.88 57.466C53.3545 57.7345 53.732 58.3622 53.9293 59.211Z" fill="#001133"/>
<path d="M67.3497 45.8369C67.5464 46.6826 67.5475 47.6793 67.3529 48.6077C67.1582 49.5362 66.7837 50.3204 66.3118 50.7877C65.8398 51.2551 65.3091 51.3672 64.8363 51.0997C64.3635 50.8321 63.9875 50.2066 63.7908 49.3609C63.5942 48.5152 63.593 47.5185 63.7877 46.59C63.9823 45.6615 64.3568 44.8774 64.8288 44.4101C65.3007 43.9428 65.8315 43.8305 66.3042 44.0981C66.777 44.3656 67.1531 44.9912 67.3497 45.8369Z" fill="#001133"/>
<path d="M80.6696 32.5766C80.8656 33.4193 80.8667 34.4124 80.6728 35.3375C80.4788 36.2626 80.1057 37.0439 79.6354 37.5095C79.1652 37.9752 78.6364 38.087 78.1653 37.8204C77.6943 37.5538 77.3195 36.9306 77.1236 36.0879C76.9276 35.2453 76.9265 34.2522 77.1205 33.3271C77.3144 32.402 77.6876 31.6207 78.1578 31.1551C78.628 30.6894 79.1569 30.5776 79.6279 30.8442C80.099 31.1108 80.4737 31.734 80.6696 32.5766Z" fill="#001133"/>
<path d="M94.209 19.2405C94.3075 19.6638 94.3584 20.129 94.3589 20.6096C94.3595 21.0902 94.3096 21.5767 94.2122 22.0414C94.1147 22.5062 93.9716 22.94 93.7911 23.3181C93.6105 23.6962 93.396 24.0112 93.1597 24.2451C92.6827 24.7175 92.1461 24.8309 91.6682 24.5604C91.1903 24.29 90.8102 23.6578 90.6114 22.8028C90.4126 21.9479 90.4114 20.9404 90.6082 20.0018C90.805 19.0633 91.1835 18.2706 91.6606 17.7982C91.8968 17.5643 92.1501 17.416 92.4061 17.3619C92.662 17.3078 92.9155 17.3489 93.1521 17.4828C93.3888 17.6168 93.6039 17.8409 93.7852 18.1425C93.9666 18.4441 94.1106 18.8171 94.209 19.2405Z" fill="#001133"/>
<path d="M107.528 6.00946C107.726 6.86131 107.727 7.86528 107.531 8.80046C107.335 9.73565 106.958 10.5255 106.482 10.9962C106.007 11.4669 105.472 11.5799 104.996 11.3104C104.52 11.0409 104.141 10.4109 103.943 9.55907C103.745 8.70722 103.744 7.70329 103.94 6.7681C104.136 5.83291 104.513 5.04312 104.989 4.57241C105.464 4.10171 105.999 3.98863 106.475 4.25814C106.951 4.52765 107.33 5.15761 107.528 6.00946Z" fill="#001133"/>
<path d="M37.31 91.9139C37.5102 92.7749 37.5114 93.7897 37.3132 94.7349C37.115 95.6802 36.7337 96.4786 36.2532 96.9544C35.7727 97.4302 35.2324 97.5444 34.751 97.272C34.2697 96.9996 33.8868 96.3629 33.6866 95.5018C33.4864 94.6408 33.4852 93.6259 33.6834 92.6807C33.8816 91.7354 34.2629 90.9371 34.7433 90.4613C35.2238 89.9855 35.7642 89.8712 36.2455 90.1436C36.7269 90.416 37.1098 91.0529 37.31 91.9139Z" fill="#001133"/>
<path d="M50.5224 78.8738C50.6219 79.3017 50.6733 79.7719 50.6739 80.2577C50.6744 80.7434 50.624 81.2353 50.5255 81.705C50.4271 82.1747 50.2824 82.6131 50.0999 82.9953C49.9174 83.3775 49.7006 83.6959 49.4618 83.9323C49.2231 84.1687 48.967 84.3185 48.7084 84.3732C48.4497 84.4279 48.1935 84.3865 47.9543 84.2511C47.7151 84.1157 47.4977 83.8891 47.3144 83.5843C47.1311 83.2795 46.9855 82.9024 46.886 82.4745C46.6851 81.6104 46.6839 80.592 46.8828 79.6434C47.0817 78.6948 47.4644 77.8935 47.9466 77.416C48.4288 76.9385 48.9711 76.8239 49.4541 77.0973C49.9372 77.3707 50.3214 78.0097 50.5224 78.8738Z" fill="#001133"/>
<path d="M63.8316 65.8086C64.0304 66.6635 64.0315 67.6711 63.8347 68.6097C63.6379 69.5482 63.2594 70.3409 62.7823 70.8133C62.5461 71.0472 62.2928 71.1955 62.0369 71.2496C61.7809 71.3037 61.5275 71.2626 61.2908 71.1286C61.0542 70.9947 60.8391 70.7706 60.6577 70.469C60.4764 70.1674 60.3324 69.7943 60.2339 69.371C60.1355 68.9477 60.0846 68.4824 60.084 68.0018C60.0835 67.5212 60.1334 67.0347 60.2308 66.57C60.3282 66.1052 60.4713 65.6715 60.6518 65.2934C60.8324 64.9153 61.047 64.6003 61.2832 64.3664C61.7603 63.894 62.2968 63.7805 62.7747 64.051C63.2526 64.3215 63.6328 64.9537 63.8316 65.8086Z" fill="#001133"/>
<path d="M77.2027 52.4265C77.4008 53.2784 77.4019 54.2823 77.2059 55.2175C77.0098 56.1527 76.6326 56.9425 76.1572 57.4132C75.6819 57.8839 75.1473 57.997 74.6711 57.7275C74.1949 57.458 73.8161 56.828 73.618 55.9762C73.4199 55.1243 73.4188 54.1203 73.6148 53.1852C73.8109 52.25 74.1881 51.4601 74.6635 50.9894C75.1388 50.5187 75.6734 50.4057 76.1496 50.6752C76.6258 50.9447 77.0046 51.5747 77.2027 52.4265Z" fill="#001133"/>
<path d="M117.704 12.3505C117.903 13.2085 117.904 14.2197 117.707 15.1616C117.509 16.1035 117.129 16.8991 116.651 17.3732C116.172 17.8473 115.633 17.9611 115.154 17.6896C114.674 17.4182 114.293 16.7836 114.093 15.9257C113.894 15.0677 113.892 14.0566 114.09 13.1146C114.287 12.1727 114.667 11.3772 115.146 10.9031C115.625 10.429 116.163 10.3152 116.643 10.5866C117.123 10.8581 117.504 11.4926 117.704 12.3505Z" fill="#001133"/>
<path d="M90.5813 39.2499C90.7766 40.0895 90.7776 41.079 90.5844 42.0007C90.3911 42.9224 90.0194 43.7009 89.5509 44.1648C89.0823 44.6288 88.5554 44.7401 88.0861 44.4745C87.6167 44.2089 87.2434 43.588 87.0481 42.7484C86.8529 41.9088 86.8518 40.9193 87.045 39.9976C87.2383 39.0758 87.6101 38.2974 88.0786 37.8335C88.5472 37.3695 89.074 37.2581 89.5434 37.5237C90.0127 37.7894 90.3861 38.4103 90.5813 39.2499Z" fill="#001133"/>
<path d="M104.095 25.8687C104.292 26.7144 104.293 27.7111 104.098 28.6395C103.903 29.568 103.529 30.3522 103.057 30.8195C102.585 31.2869 102.054 31.399 101.581 31.1315C101.109 30.8639 100.733 30.2384 100.536 29.3927C100.339 28.547 100.338 27.5503 100.533 26.6219C100.727 25.6934 101.102 24.9092 101.574 24.4419C102.046 23.9746 102.577 23.8624 103.049 24.1299C103.522 24.3975 103.898 25.023 104.095 25.8687Z" fill="#001133"/>
<path d="M33.609 111.2C33.8057 112.046 33.8068 113.042 33.6122 113.971C33.4175 114.899 33.043 115.683 32.5711 116.151C32.0991 116.618 31.5684 116.73 31.0956 116.463C30.6228 116.195 30.2468 115.57 30.0501 114.724C29.8534 113.878 29.8523 112.881 30.047 111.953C30.2416 111.025 30.6161 110.24 31.0881 109.773C31.56 109.306 32.0908 109.194 32.5635 109.461C33.0363 109.729 33.4124 110.354 33.609 111.2Z" fill="#001133"/>
<path d="M46.8775 98.2318C47.0756 99.0836 47.0767 100.088 46.8806 101.023C46.6846 101.958 46.3074 102.748 45.832 103.219C45.3566 103.689 44.822 103.802 44.3458 103.533C43.8696 103.263 43.4908 102.633 43.2928 101.781C43.0947 100.93 43.0935 99.9256 43.2896 98.9904C43.4857 98.0552 43.8629 97.2654 44.3382 96.7947C44.8136 96.324 45.3482 96.211 45.8244 96.4805C46.3006 96.75 46.6794 97.3799 46.8775 98.2318Z" fill="#001133"/>
<path d="M60.0875 85.2505C60.1856 85.6723 60.2363 86.1358 60.2368 86.6147C60.2374 87.0936 60.1877 87.5784 60.0906 88.0415C59.9935 88.5045 59.8509 88.9368 59.671 89.3135C59.4911 89.6902 59.2773 90.0041 59.042 90.2372C58.5666 90.7079 58.032 90.8209 57.5558 90.5514C57.0796 90.2819 56.7008 89.6519 56.5027 88.8001C56.3047 87.9482 56.3035 86.9443 56.4996 86.0091C56.6956 85.0739 57.0728 84.2841 57.5482 83.8133C57.7836 83.5803 58.036 83.4326 58.291 83.3787C58.546 83.3248 58.7986 83.3657 59.0344 83.4991C59.2702 83.6326 59.4845 83.856 59.6652 84.1565C59.8459 84.457 59.9894 84.8287 60.0875 85.2505Z" fill="#001133"/>
<path d="M73.4595 72.0097C73.5576 72.4315 73.6084 72.895 73.6089 73.3739C73.6095 73.8528 73.5598 74.3376 73.4627 74.8007C73.3656 75.2637 73.223 75.696 73.0431 76.0727C72.8631 76.4495 72.6494 76.7633 72.414 76.9964C71.9387 77.4671 71.4041 77.5802 70.9279 77.3106C70.4517 77.0411 70.0729 76.4111 69.8748 75.5593C69.6767 74.7074 69.6756 73.7035 69.8716 72.7683C70.0677 71.8331 70.4449 71.0433 70.9203 70.5726C71.1557 70.3395 71.408 70.1919 71.663 70.1379C71.918 70.084 72.1706 70.1249 72.4064 70.2584C72.6422 70.3918 72.8566 70.6152 73.0373 70.9157C73.218 71.2161 73.3615 71.5879 73.4595 72.0097Z" fill="#001133"/>
<path d="M86.8605 58.6548C87.0565 59.4974 87.0576 60.4905 86.8636 61.4156C86.6697 62.3407 86.2966 63.122 85.8263 63.5877C85.3561 64.0533 84.8273 64.1651 84.3562 63.8985C83.8851 63.6319 83.5104 63.0087 83.3145 62.1661C83.1186 61.3234 83.1174 60.3304 83.3114 59.4053C83.5053 58.4802 83.8785 57.6988 84.3487 57.2332C84.8189 56.7675 85.3478 56.6558 85.8188 56.9224C86.2899 57.189 86.6646 57.8121 86.8605 58.6548Z" fill="#001133"/>
<path d="M100.316 45.3313C100.511 46.1709 100.512 47.1604 100.319 48.0821C100.126 49.0039 99.7542 49.7823 99.2857 50.2463C98.8172 50.7102 98.2903 50.8216 97.8209 50.556C97.3516 50.2903 96.9782 49.6695 96.783 48.8299C96.5878 47.9903 96.5866 47.0008 96.7799 46.079C96.9731 45.1573 97.3449 44.3789 97.8134 43.9149C98.282 43.451 98.8088 43.3396 99.2782 43.6052C99.7475 43.8708 100.121 44.4917 100.316 45.3313Z" fill="#001133"/>
<path d="M113.683 32.1376C113.877 32.9711 113.878 33.9534 113.686 34.8684C113.494 35.7834 113.125 36.5562 112.66 37.0167C112.195 37.4773 111.672 37.5878 111.206 37.3242C110.74 37.0605 110.369 36.4441 110.176 35.6106C109.982 34.7772 109.981 33.7949 110.173 32.8799C110.364 31.9649 110.733 31.1921 111.199 30.7316C111.664 30.271 112.187 30.1604 112.653 30.4241C113.119 30.6878 113.489 31.3042 113.683 32.1376Z" fill="#001133"/>
<path d="M43.4871 118.034C43.6816 118.871 43.6827 119.857 43.4902 120.775C43.2976 121.694 42.9272 122.469 42.4604 122.931C41.9936 123.394 41.4686 123.505 41.001 123.24C40.5333 122.975 40.1614 122.357 39.9668 121.52C39.7723 120.684 39.7712 119.698 39.9637 118.779C40.1563 117.861 40.5267 117.085 40.9935 116.623C41.4603 116.161 41.9853 116.05 42.4529 116.315C42.9206 116.579 43.2926 117.198 43.4871 118.034Z" fill="#001133"/>
<path d="M56.6658 105.056C56.861 105.895 56.8621 106.885 56.6689 107.807C56.4756 108.728 56.1038 109.507 55.6353 109.971C55.1668 110.435 54.6399 110.546 54.1706 110.28C53.7012 110.015 53.3278 109.394 53.1326 108.554C53.0359 108.139 52.9859 107.682 52.9854 107.21C52.9848 106.738 53.0338 106.26 53.1295 105.804C53.2252 105.347 53.3657 104.921 53.5431 104.55C53.7204 104.178 53.9311 103.869 54.1631 103.639C54.395 103.41 54.6438 103.264 54.8951 103.211C55.1465 103.158 55.3954 103.198 55.6278 103.33C55.8602 103.461 56.0715 103.681 56.2496 103.978C56.4277 104.274 56.5691 104.64 56.6658 105.056Z" fill="#001133"/>
<path d="M69.8938 92.0145C70.0897 92.8572 70.0908 93.8502 69.8969 94.7753C69.7029 95.7004 69.3298 96.4818 68.8595 96.9474C68.3893 97.413 67.8605 97.5248 67.3894 97.2582C66.9184 96.9916 66.5436 96.3685 66.3477 95.5258C66.1518 94.6832 66.1506 93.69 66.3446 92.7649C66.5385 91.8398 66.9117 91.0585 67.3819 90.5929C67.8521 90.1273 68.381 90.0154 68.852 90.282C69.3231 90.5486 69.6978 91.1719 69.8938 92.0145Z" fill="#001133"/>
<path d="M83.3285 78.7689C83.5209 79.5962 83.522 80.5713 83.3316 81.4795C83.1412 82.3878 82.7748 83.1549 82.3131 83.6121C81.8515 84.0693 81.3322 84.1791 80.8697 83.9173C80.4072 83.6555 80.0393 83.0437 79.847 82.2164C79.6546 81.389 79.6535 80.414 79.8439 79.5057C80.0343 78.5974 80.4007 77.8303 80.8624 77.3731C81.3241 76.916 81.8433 76.8062 82.3058 77.068C82.7683 77.3297 83.1361 77.9416 83.3285 78.7689Z" fill="#001133"/>
<path d="M96.6977 65.587C96.8894 66.4113 96.8905 67.3828 96.7008 68.2877C96.5111 69.1926 96.1461 69.9568 95.6861 70.4123C95.2261 70.8677 94.7088 70.9771 94.2481 70.7164C93.7873 70.4556 93.4207 69.846 93.229 69.0217C93.0374 68.1974 93.0363 67.226 93.226 66.3211C93.4157 65.4161 93.7807 64.6519 94.2407 64.1964C94.7007 63.7409 95.2179 63.6316 95.6787 63.8924C96.1395 64.1532 96.5061 64.7627 96.6977 65.587Z" fill="#001133"/>
<path d="M110.103 52.2143C110.197 52.6194 110.246 53.0646 110.246 53.5245C110.247 53.9845 110.199 54.4501 110.106 54.8948C110.012 55.3396 109.875 55.7547 109.703 56.1166C109.53 56.4784 109.325 56.7799 109.098 57.0037C108.642 57.4558 108.128 57.5643 107.671 57.3055C107.214 57.0466 106.85 56.4416 106.66 55.6234C106.469 54.8053 106.468 53.8411 106.657 52.9429C106.845 52.0447 107.207 51.2861 107.664 50.8341C107.89 50.6102 108.132 50.4683 108.377 50.4166C108.622 50.3648 108.865 50.4041 109.091 50.5323C109.318 50.6604 109.524 50.8749 109.697 51.1635C109.871 51.4521 110.008 51.8092 110.103 52.2143Z" fill="#001133"/>
<path d="M49.9768 127.695C49.6354 127.579 49.3556 127.151 49.199 126.505C49.0424 125.86 49.0218 125.05 49.1418 124.253C49.2617 123.457 49.5124 122.739 49.8387 122.258C50.1649 121.777 50.54 121.573 50.8814 121.689C51.2228 121.806 51.5025 122.234 51.6591 122.879C51.8157 123.525 51.8363 124.335 51.7164 125.131C51.5964 125.928 51.3458 126.645 51.0195 127.126C50.6933 127.607 50.3182 127.812 49.9768 127.695Z" fill="#001133"/>
<path d="M62.976 114.851C62.8092 114.784 62.6572 114.64 62.5285 114.426C62.3997 114.212 62.2969 113.932 62.2258 113.603C62.1547 113.274 62.1167 112.902 62.114 112.507C62.1114 112.113 62.1441 111.705 62.2102 111.306C62.2764 110.907 62.3748 110.525 62.4997 110.181C62.6246 109.838 62.7737 109.54 62.9384 109.305C63.1031 109.07 63.2802 108.902 63.4595 108.811C63.6389 108.719 63.817 108.706 63.9838 108.773C64.1505 108.839 64.3026 108.984 64.4313 109.198C64.56 109.412 64.6629 109.691 64.734 110.021C64.8051 110.35 64.8431 110.722 64.8458 111.116C64.8484 111.51 64.8157 111.919 64.7495 112.318C64.6834 112.717 64.585 113.099 64.4601 113.442C64.3351 113.785 64.186 114.083 64.0214 114.318C63.8567 114.554 63.6796 114.722 63.5002 114.813C63.3208 114.904 63.1427 114.917 62.976 114.851Z" fill="#001133"/>
<path d="M76.4926 101.475C76.1491 101.36 75.8667 100.934 75.7076 100.289C75.5485 99.6444 75.5257 98.8345 75.6442 98.0375C75.7627 97.2406 76.0128 96.5219 76.3395 96.0394C76.6663 95.557 77.0428 95.3504 77.3863 95.4651C77.7299 95.5799 78.0123 96.0065 78.1714 96.6512C78.3305 97.2959 78.3533 98.1058 78.2348 98.9027C78.1163 99.6997 77.8661 100.418 77.5394 100.901C77.2127 101.383 76.8362 101.59 76.4926 101.475Z" fill="#001133"/>
<path d="M103.294 74.555C102.975 74.366 102.734 73.8864 102.624 73.2219C102.514 72.5574 102.543 71.7622 102.706 71.0114C102.786 70.6396 102.897 70.2899 103.032 69.9822C103.167 69.6746 103.323 69.4149 103.491 69.2182C103.66 69.0215 103.838 68.8915 104.014 68.8356C104.191 68.7798 104.363 68.7992 104.521 68.8928C104.839 69.0818 105.08 69.5613 105.191 70.2258C105.301 70.8903 105.272 71.6855 105.109 72.4363C105.028 72.8081 104.917 73.1578 104.783 73.4655C104.648 73.7732 104.492 74.0327 104.323 74.2294C104.155 74.4262 103.977 74.5562 103.801 74.612C103.624 74.6678 103.452 74.6485 103.294 74.555Z" fill="#001133"/>
<path d="M89.8359 88.1128C89.678 88.0441 89.5347 87.9015 89.4142 87.693C89.2937 87.4845 89.1984 87.2142 89.1337 86.8977C89.069 86.5811 89.0362 86.2244 89.0372 85.848C89.0381 85.4716 89.0729 85.0828 89.1394 84.7038C89.2058 84.3248 89.3028 83.963 89.4246 83.6392C89.5465 83.3153 89.6909 83.0357 89.8496 82.8163C90.0083 82.5969 90.1782 82.442 90.3496 82.3604C90.521 82.2788 90.6905 82.2723 90.8485 82.341C91.0064 82.4096 91.1498 82.5522 91.2703 82.7607C91.3907 82.9692 91.486 83.2395 91.5507 83.5561C91.6154 83.8727 91.6482 84.2293 91.6472 84.6058C91.6463 84.9822 91.6115 85.371 91.545 85.75C91.4786 86.129 91.3816 86.4907 91.2598 86.8146C91.1379 87.1384 90.9935 87.418 90.8348 87.6375C90.6761 87.8569 90.5062 88.0118 90.3348 88.0934C90.1634 88.1749 89.9939 88.1815 89.8359 88.1128Z" fill="#001133"/>
</svg>
