<svg width="25" height="12" viewBox="0 0 25 12" fill="none" xmlns="http://www.w3.org/2000/svg">
<path d="M22.405 6.5C22.405 6.5 24.405 8.67 24.405 10C24.405 10.5304 24.1943 11.0391 23.8192 11.4142C23.4441 11.7893 22.9354 12 22.405 12C21.8746 12 21.3659 11.7893 20.9908 11.4142C20.6157 11.0391 20.405 10.5304 20.405 10C20.405 8.67 22.405 6.5 22.405 6.5ZM6.405 0H10.405C10.6702 0 10.9246 0.105357 11.1121 0.292893C11.2996 0.48043 11.405 0.734784 11.405 1C11.405 1.26522 11.2996 1.51957 11.1121 1.70711C10.9246 1.89464 10.6702 2 10.405 2H9.405V4H11.405C12.145 4 12.795 4.4 13.135 5L19.645 1.24L22.905 3.13C23.405 3.4 23.545 4 23.275 4.5C22.995 4.97 22.405 5.14 21.905 4.86L19.805 3.65L16.155 9.97C15.815 10.58 15.155 11 14.405 11H5.405C4.87457 11 4.36586 10.7893 3.99079 10.4142C3.61571 10.0391 3.405 9.53043 3.405 9V6C3.405 5.46957 3.61571 4.96086 3.99079 4.58579C4.36586 4.21071 4.87457 4 5.405 4H7.405V2H6.405C6.13978 2 5.88543 1.89464 5.69789 1.70711C5.51036 1.51957 5.405 1.26522 5.405 1C5.405 0.734784 5.51036 0.48043 5.69789 0.292893C5.88543 0.105357 6.13978 0 6.405 0ZM5.405 6V9H14.405L16.465 5.43L13.005 7.43L12.095 6H5.405ZM0.785 3.21L2.495 1.5C2.905 1.11 3.515 1.11 3.905 1.5C4.295 1.89 4.295 2.5 3.905 2.91L2.195 4.62C1.805 5 1.175 5 0.785 4.62C0.405 4.23 0.405 3.6 0.785 3.21Z" fill="white"/>
</svg>
