<svg width="20" height="20" viewBox="0 0 20 20" fill="none" xmlns="http://www.w3.org/2000/svg">
<path d="M17 16.31V18C17 18.5304 16.7893 19.0391 16.4142 19.4142C16.0391 19.7893 15.5304 20 15 20H5C4.46957 20 3.96086 19.7893 3.58579 19.4142C3.21071 19.0391 3 18.5304 3 18V14.3C2.54 14.12 1.95 14 1 14C0.734784 14 0.48043 13.8946 0.292893 13.7071C0.105357 13.5196 0 13.2652 0 13C0 12.7348 0.105357 12.4804 0.292893 12.2929C0.48043 12.1054 0.734784 12 1 12C1.82 12 2.47 12.08 3 12.21V10.3C2.54 10.12 1.95 10 1 10C0.734784 10 0.48043 9.89464 0.292893 9.70711C0.105357 9.51957 0 9.26522 0 9C0 8.73478 0.105357 8.48043 0.292893 8.29289C0.48043 8.10536 0.734784 8 1 8C1.82 8 2.47 8.08 3 8.21V6.3C2.54 6.12 1.95 6 1 6C0.734784 6 0.48043 5.89464 0.292893 5.70711C0.105357 5.51957 0 5.26522 0 5C0 4.73478 0.105357 4.48043 0.292893 4.29289C0.48043 4.10536 0.734784 4 1 4C1.82 4 2.47 4.08 3 4.21V2C3 1.46957 3.21071 0.960859 3.58579 0.585786C3.96086 0.210714 4.46957 0 5 0H15C15.5304 0 16.0391 0.210714 16.4142 0.585786C16.7893 0.960859 17 1.46957 17 2V4.16C18.78 4.47 19.54 5.13 19.71 5.29C20.1 5.68 20.1 6.32 19.71 6.71C19.32 7.1 18.8 7.09 18.29 6.71C18.29 6.71 17.25 6 15 6C13.74 6 12.91 6.41 11.95 6.9C10.91 7.41 9.74 8 8 8C7.64 8 7.31 8 7 7.96V5.95C7.3 6 7.63 6 8 6C9.26 6 10.09 5.59 11.05 5.11C12.09 4.59 13.27 4 15 4V2H5V18H15V16C16.5 16 16.97 16.29 17 16.31ZM15 8C13.27 8 12.09 8.59 11.05 9.11C10.09 9.59 9.26 10 8 10C7.63 10 7.3 10 7 9.95V11.96C7.31 12 7.64 12 8 12C9.74 12 10.91 11.41 11.95 10.9C12.91 10.42 13.74 10 15 10C17.25 10 18.29 10.71 18.29 10.71C18.8 11.1 19.32 11.1 19.71 10.71C20.1 10.32 20.1 9.69 19.71 9.29C19.5 9.08 18.25 8 15 8ZM15 12C13.27 12 12.09 12.59 11.05 13.11C10.09 13.59 9.26 14 8 14C7.63 14 7.3 14 7 13.95V15.96C7.31 16 7.64 16 8 16C9.74 16 10.91 15.41 11.95 14.9C12.91 14.42 13.74 14 15 14C17.25 14 18.29 14.71 18.29 14.71C18.8 15.1 19.32 15.1 19.71 14.71C20.1 14.32 20.1 13.69 19.71 13.29C19.5 13.08 18.25 12 15 12Z" fill="white"/>
</svg>
