<svg width="18" height="22" viewBox="0 0 18 22" fill="none" xmlns="http://www.w3.org/2000/svg">
<path fill-rule="evenodd" clip-rule="evenodd" d="M12.743 0.593266C12.8293 0.614799 12.9124 0.647756 12.99 0.691266C14.437 1.07127 15.603 2.26127 16.41 3.71327C17.412 5.51727 18 7.94027 18 10.5633C18 13.1863 17.412 15.6093 16.41 17.4133C15.603 18.8643 14.437 20.0543 12.99 20.4353C12.9121 20.4789 12.8287 20.5118 12.742 20.5333C9.074 21.4503 6.905 21.1793 5.262 20.5733L4.918 20.4373C4.80723 20.3914 4.69721 20.3437 4.588 20.2943C3.191 19.6613 2.05 18.3203 1.266 16.6563C0.473 14.9733 0 12.8723 0 10.5633C0 8.25427 0.473 6.15327 1.266 4.47027C2.05 2.80627 3.19 1.46527 4.587 0.833266C4.695 0.783932 4.805 0.736266 4.917 0.690266L5.262 0.555266C6.905 -0.0517344 9.074 -0.322735 12.742 0.594265L12.743 0.593266ZM5.413 2.65327C4.596 3.02427 3.737 3.91627 3.075 5.32327C2.42 6.71127 2 8.51827 2 10.5633C2 12.6083 2.42 14.4153 3.075 15.8033C3.737 17.2103 4.595 18.1023 5.413 18.4733C6.223 18.8403 7.235 19.1753 8.849 19.1233C8.35521 18.6117 7.93182 18.0367 7.59 17.4133C6.588 15.6093 6 13.1853 6 10.5633C6 7.94027 6.588 5.51727 7.59 3.71327C7.93213 3.08979 8.35586 2.51473 8.85 2.00327C7.235 1.95127 6.223 2.28627 5.413 2.65327ZM12 2.56327C11.147 2.56327 10.165 3.19727 9.339 4.68527C8.53 6.13927 8 8.21527 8 10.5633C8 12.9113 8.53 14.9873 9.339 16.4413C10.165 17.9293 11.147 18.5633 12 18.5633C12.853 18.5633 13.835 17.9293 14.661 16.4413C15.47 14.9873 16 12.9113 16 10.5633C16 8.21527 15.47 6.13927 14.661 4.68527C13.835 3.19727 12.853 2.56327 12 2.56327ZM12 6.56327C12.997 6.56327 13.63 7.34526 13.955 7.99427C14.31 8.70426 14.5 9.61327 14.5 10.5633C14.5 11.5133 14.31 12.4233 13.955 13.1323C13.631 13.7813 12.997 14.5623 12 14.5623C11.003 14.5623 10.37 13.7813 10.045 13.1323C9.69 12.4223 9.5 11.5123 9.5 10.5623C9.5 9.61227 9.69 8.70327 10.045 7.99427C10.37 7.34526 11.003 6.56327 12 6.56327ZM12 8.62327C11.957 8.67327 11.9 8.75627 11.834 8.88927C11.645 9.26627 11.5 9.85627 11.5 10.5633C11.5 11.2703 11.645 11.8603 11.834 12.2373C11.9 12.3703 11.957 12.4533 12 12.5033C12.043 12.4533 12.1 12.3703 12.166 12.2373C12.355 11.8603 12.5 11.2703 12.5 10.5633C12.5 9.85627 12.355 9.26627 12.166 8.88927C12.1216 8.79423 12.0659 8.70491 12 8.62327Z" fill="white"/>
</svg>
