<svg width="22" height="16" viewBox="0 0 22 16" fill="none" xmlns="http://www.w3.org/2000/svg">
<path d="M11 0C13.1217 0 15.1566 0.842855 16.6569 2.34315C18.1572 3.84344 19 5.87827 19 8C19 10.1217 18.1572 12.1566 16.6569 13.6569C15.1566 15.1571 13.1217 16 11 16C8.87828 16 6.84345 15.1571 5.34316 13.6569C3.84286 12.1566 3.00001 10.1217 3.00001 8C3.00001 5.87827 3.84286 3.84344 5.34316 2.34315C6.84345 0.842855 8.87828 0 11 0ZM2.20001 1.4C2.27721 1.29084 2.37551 1.19826 2.48911 1.12775C2.60271 1.05724 2.72929 1.01022 2.86137 0.989484C2.99346 0.968745 3.12836 0.974705 3.2581 1.00701C3.38784 1.03931 3.50979 1.09731 3.61672 1.17756C3.72366 1.25781 3.81342 1.3587 3.88069 1.47424C3.94796 1.58979 3.99138 1.71765 4.00837 1.85027C4.02537 1.98289 4.0156 2.11757 3.97964 2.24634C3.94367 2.37512 3.88226 2.49537 3.79901 2.6C2.62837 4.15663 1.99682 6.05231 2.00001 8C2.00001 10.027 2.67001 11.895 3.79901 13.4C3.95814 13.6122 4.02647 13.8789 3.98896 14.1414C3.95145 14.404 3.81118 14.6409 3.59901 14.8C3.38684 14.9591 3.12014 15.0275 2.85759 14.99C2.59504 14.9524 2.35814 14.8122 2.19901 14.6C0.768724 12.6972 -0.00317508 10.3804 9.81631e-06 8C9.81631e-06 5.525 0.81901 3.238 2.20001 1.4ZM18.4 1.2C18.6122 1.04087 18.8789 0.972543 19.1414 1.01005C19.404 1.04756 19.6409 1.18783 19.8 1.4C21.2307 3.3027 22.0029 5.61946 22 8C22 10.475 21.181 12.762 19.8 14.6C19.7228 14.7092 19.6245 14.8017 19.5109 14.8723C19.3973 14.9428 19.2707 14.9898 19.1386 15.0105C19.0066 15.0313 18.8717 15.0253 18.7419 14.993C18.6122 14.9607 18.4902 14.9027 18.3833 14.8224C18.2764 14.7422 18.1866 14.6413 18.1193 14.5258C18.0521 14.4102 18.0086 14.2823 17.9916 14.1497C17.9747 14.0171 17.9844 13.8824 18.0204 13.7537C18.0563 13.6249 18.1178 13.5046 18.201 13.4C19.3717 11.8434 20.0032 9.94769 20 8C20 5.973 19.33 4.105 18.201 2.6C18.0419 2.38783 17.9736 2.12113 18.0111 1.85858C18.0486 1.59603 18.1878 1.35913 18.4 1.2ZM11 2C9.40871 2 7.88259 2.63214 6.75737 3.75736C5.63215 4.88258 5.00001 6.4087 5.00001 8C5.00001 9.5913 5.63215 11.1174 6.75737 12.2426C7.88259 13.3679 9.40871 14 11 14C12.5913 14 14.1174 13.3679 15.2427 12.2426C16.3679 11.1174 17 9.5913 17 8C17 6.4087 16.3679 4.88258 15.2427 3.75736C14.1174 2.63214 12.5913 2 11 2ZM11 10C11.2652 10 11.5196 10.1054 11.7071 10.2929C11.8947 10.4804 12 10.7348 12 11C12 11.2652 11.8947 11.5196 11.7071 11.7071C11.5196 11.8946 11.2652 12 11 12C10.7348 12 10.4804 11.8946 10.2929 11.7071C10.1054 11.5196 10 11.2652 10 11C10 10.7348 10.1054 10.4804 10.2929 10.2929C10.4804 10.1054 10.7348 10 11 10ZM11 4C11.2449 4.00003 11.4813 4.08996 11.6644 4.25272C11.8474 4.41547 11.9644 4.63975 11.993 4.883L12 5V8C11.9997 8.25488 11.9021 8.50003 11.7272 8.68537C11.5522 8.8707 11.3131 8.98223 11.0586 8.99717C10.8042 9.01211 10.5536 8.92933 10.3582 8.76574C10.1627 8.60215 10.0371 8.3701 10.007 8.117L10 8V5C10 4.73478 10.1054 4.48043 10.2929 4.29289C10.4804 4.10536 10.7348 4 11 4Z" fill="white"/>
</svg>
