<svg width="21" height="18" viewBox="0 0 21 18" fill="none" xmlns="http://www.w3.org/2000/svg">
<path d="M19.5 12V10.5C19.495 8.64004 18.916 6.82696 17.8421 5.30831C16.7683 3.78965 15.2519 2.63943 13.5 2.01469V1.5C13.5 1.10218 13.342 0.720644 13.0607 0.43934C12.7794 0.158035 12.3978 0 12 0H9C8.60217 0 8.22064 0.158035 7.93934 0.43934C7.65804 0.720644 7.5 1.10218 7.5 1.5V2.01469C5.7481 2.63943 4.2317 3.78965 3.15785 5.30831C2.084 6.82696 1.50504 8.64004 1.5 10.5V12C1.10218 12 0.720644 12.158 0.43934 12.4393C0.158035 12.7206 0 13.1022 0 13.5V15.75C0 16.1478 0.158035 16.5294 0.43934 16.8107C0.720644 17.092 1.10218 17.25 1.5 17.25H19.5C19.8978 17.25 20.2794 17.092 20.5607 16.8107C20.842 16.5294 21 16.1478 21 15.75V13.5C21 13.1022 20.842 12.7206 20.5607 12.4393C20.2794 12.158 19.8978 12 19.5 12ZM18 10.5V12H13.5V3.62531C14.835 4.21264 15.9709 5.17486 16.7697 6.39519C17.5685 7.61552 17.9959 9.04148 18 10.5ZM12 1.5V12H9V1.5H12ZM3 10.5C3.00411 9.04148 3.43151 7.61552 4.23031 6.39519C5.0291 5.17486 6.16496 4.21264 7.5 3.62531V12H3V10.5ZM19.5 15.75H1.5V13.5H19.5V15.75Z" fill="white"/>
</svg>
