<svg width="34" height="122" viewBox="0 0 34 122" fill="none" xmlns="http://www.w3.org/2000/svg">
<path d="M2.65446 98.8479C3.11984 98.86 3.56259 99.1213 3.88531 99.5742C4.20804 100.027 4.38432 100.635 4.37534 101.263C4.36636 101.891 4.17287 102.489 3.83744 102.925C3.50202 103.361 3.05214 103.599 2.58676 103.587C2.12138 103.575 1.67864 103.313 1.35591 102.86C1.03318 102.407 0.856902 101.8 0.865879 101.172C0.874856 100.543 1.06835 99.9454 1.40378 99.5096C1.7392 99.0738 2.18908 98.8358 2.65446 98.8479Z" fill="#001133"/>
<path d="M2.95208 81.1215C3.41915 81.1337 3.86351 81.3959 4.1874 81.8505C4.5113 82.305 4.68818 82.9147 4.67917 83.5454C4.67016 84.1761 4.476 84.7761 4.13936 85.2135C3.80272 85.6508 3.35121 85.8897 2.88414 85.8775C2.41707 85.8654 1.97272 85.6031 1.64882 85.1486C1.32493 84.694 1.14801 84.0843 1.15702 83.4537C1.16603 82.823 1.36023 82.223 1.69686 81.7856C2.0335 81.3483 2.48502 81.1094 2.95208 81.1215Z" fill="#001133"/>
<path d="M3.16959 63.2299C3.63498 63.242 4.07772 63.5033 4.40045 63.9562C4.72318 64.4091 4.89945 65.0166 4.89048 65.645C4.8815 66.2734 4.688 66.8713 4.35258 67.307C4.01716 67.7428 3.56728 67.9808 3.1019 67.9687C2.63652 67.9566 2.19373 67.6953 1.87101 67.2424C1.54828 66.7895 1.37204 66.182 1.38102 65.5536C1.38999 64.9252 1.58345 64.3273 1.91887 63.8915C2.2543 63.4558 2.70421 63.2178 3.16959 63.2299Z" fill="#001133"/>
<path d="M3.3915 45.4758C3.8552 45.4878 4.29637 45.7481 4.61793 46.1994C4.93949 46.6507 5.11509 47.256 5.10614 47.8821C5.0972 48.5082 4.90444 49.1039 4.57023 49.5381C4.23603 49.9723 3.78775 50.2095 3.32405 50.1974C2.86036 50.1853 2.41922 49.925 2.09766 49.4737C1.7761 49.0224 1.60046 48.4172 1.60941 47.791C1.61835 47.1649 1.81115 46.5692 2.14536 46.135C2.47956 45.7008 2.92781 45.4637 3.3915 45.4758Z" fill="#001133"/>
<path d="M3.68015 27.4658C3.91308 27.4719 4.14286 27.5399 4.35634 27.6659C4.56983 27.7918 4.76282 27.9734 4.92436 28.2001C5.08589 28.4268 5.21278 28.6942 5.29777 28.9871C5.38276 29.28 5.42421 29.5927 5.41971 29.9072C5.41064 30.5425 5.21504 31.1468 4.87597 31.5873C4.5369 32.0279 4.08215 32.2684 3.61171 32.2562C3.14127 32.2439 2.6937 31.9798 2.36746 31.522C2.04123 31.0642 1.86303 30.4501 1.87211 29.8148C1.8766 29.5003 1.92695 29.19 2.02024 28.9018C2.11353 28.6135 2.24796 28.3528 2.41585 28.1347C2.58374 27.9166 2.78181 27.7453 2.99874 27.6305C3.21566 27.5157 3.44721 27.4598 3.68015 27.4658Z" fill="#001133"/>
<path d="M3.91471 9.72053C4.38346 9.73274 4.82943 9.99592 5.15449 10.4521C5.47956 10.9083 5.65712 11.5202 5.64807 12.1532C5.63903 12.7861 5.44413 13.3883 5.10628 13.8272C4.76842 14.2662 4.31528 14.5059 3.84652 14.4937C3.37777 14.4815 2.9318 14.2183 2.60674 13.7621C2.28167 13.3059 2.10415 12.694 2.11319 12.0611C2.12224 11.4281 2.3171 10.8259 2.65495 10.387C2.9928 9.94808 3.44595 9.70832 3.91471 9.72053Z" fill="#001133"/>
<path d="M9.8442 107.529C10.318 107.541 10.7688 107.807 11.0973 108.268C11.4259 108.729 11.6054 109.348 11.5963 109.988C11.5871 110.627 11.3901 111.236 11.0486 111.68C10.7071 112.123 10.2491 112.366 9.77528 112.353C9.30147 112.341 8.85067 112.075 8.5221 111.614C8.19353 111.153 8.01409 110.534 8.02323 109.894C8.03237 109.255 8.22934 108.646 8.57084 108.202C8.91234 107.759 9.37039 107.516 9.8442 107.529Z" fill="#001133"/>
<path d="M10.1145 89.9477C10.3499 89.9538 10.5822 90.0225 10.798 90.1498C11.0137 90.2771 11.2089 90.4606 11.3721 90.6898C11.5354 90.9189 11.6636 91.1892 11.7495 91.4853C11.8354 91.7814 11.8773 92.0974 11.8728 92.4153C11.8682 92.7332 11.8174 93.0468 11.7231 93.3382C11.6288 93.6295 11.4929 93.893 11.3232 94.1135C11.1535 94.3339 10.9533 94.5071 10.734 94.6231C10.5148 94.7391 10.2808 94.7956 10.0453 94.7895C9.56982 94.7771 9.11745 94.5102 8.78771 94.0474C8.45797 93.5847 8.27785 92.9639 8.28703 92.3219C8.2962 91.6798 8.4939 91.069 8.83662 90.6237C9.17933 90.1785 9.63899 89.9353 10.1145 89.9477Z" fill="#001133"/>
<path d="M10.4184 72.2558C10.8888 72.268 11.3364 72.5321 11.6626 72.99C11.9889 73.4478 12.167 74.0619 12.158 74.6971C12.1535 75.0117 12.1032 75.3219 12.0099 75.6102C11.9166 75.8985 11.7821 76.1591 11.6142 76.3772C11.4464 76.5953 11.2483 76.7667 11.0314 76.8814C10.8144 76.9962 10.5829 77.0521 10.35 77.0461C10.117 77.04 9.88724 76.972 9.67376 76.8461C9.46027 76.7201 9.26724 76.5386 9.10571 76.3119C8.94417 76.0852 8.81728 75.8178 8.73229 75.5248C8.6473 75.2319 8.60589 74.9193 8.61039 74.6047C8.61946 73.9695 8.81503 73.3652 9.15409 72.9246C9.49316 72.4841 9.94795 72.2435 10.4184 72.2558Z" fill="#001133"/>
<path d="M10.6096 54.4149C11.0783 54.4271 11.5243 54.6902 11.8494 55.1464C12.1744 55.6026 12.3519 56.2145 12.3429 56.8474C12.3339 57.4804 12.139 58.0826 11.8011 58.5215C11.4633 58.9605 11.0101 59.2002 10.5414 59.188C10.0726 59.1758 9.62667 58.9126 9.3016 58.4564C8.97653 58.0002 8.79898 57.3883 8.80802 56.7554C8.81706 56.1224 9.01196 55.5202 9.34982 55.0813C9.68767 54.6424 10.1408 54.4027 10.6096 54.4149Z" fill="#001133"/>
<path d="M11.3923 0.494407C11.8644 0.506704 12.3136 0.77172 12.641 1.2312C12.9684 1.69069 13.1472 2.30699 13.1381 2.9445C13.129 3.58201 12.9327 4.18849 12.5924 4.63058C12.2522 5.07268 11.7957 5.31416 11.3236 5.30186C10.8515 5.28956 10.4023 5.0245 10.0749 4.56501C9.74752 4.10553 9.56869 3.48928 9.5778 2.85177C9.5869 2.21426 9.78321 1.60772 10.1235 1.16563C10.4638 0.723538 10.9202 0.48211 11.3923 0.494407Z" fill="#001133"/>
<path d="M10.8956 36.6196C11.3576 36.6316 11.7972 36.891 12.1176 37.3406C12.4379 37.7903 12.6129 38.3933 12.604 39.0172C12.5951 39.641 12.403 40.2346 12.07 40.6672C11.737 41.0998 11.2904 41.3361 10.8284 41.3241C10.3664 41.312 9.92686 41.0526 9.60647 40.603C9.28608 40.1534 9.11112 39.5503 9.12003 38.9264C9.12894 38.3026 9.321 37.7091 9.65399 37.2765C9.98698 36.8438 10.4336 36.6075 10.8956 36.6196Z" fill="#001133"/>
<path d="M11.1525 18.6259C11.6179 18.638 12.0606 18.8993 12.3834 19.3522C12.7061 19.8051 12.8824 20.4126 12.8734 21.041C12.8644 21.6694 12.6709 22.2673 12.3355 22.703C12.0001 23.1388 11.5502 23.3768 11.0848 23.3647C10.6194 23.3526 10.1767 23.0913 9.85395 22.6384C9.53123 22.1855 9.35495 21.578 9.36393 20.9496C9.3729 20.3212 9.5664 19.7233 9.90182 19.2875C10.2372 18.8518 10.6871 18.6138 11.1525 18.6259Z" fill="#001133"/>
<path d="M16.7048 116.57C17.1701 116.582 17.6129 116.844 17.9356 117.297C18.2583 117.749 18.4346 118.357 18.4256 118.985C18.4167 119.614 18.2232 120.212 17.8877 120.647C17.5523 121.083 17.1024 121.321 16.6371 121.309C16.1717 121.297 15.7289 121.036 15.4062 120.583C15.0835 120.13 14.9072 119.522 14.9162 118.894C14.9251 118.265 15.1186 117.668 15.4541 117.232C15.7895 116.796 16.2394 116.558 16.7048 116.57Z" fill="#001133"/>
<path d="M17.0329 98.9476C17.5016 98.9598 17.9476 99.223 18.2727 99.6792C18.5977 100.135 18.7753 100.747 18.7662 101.38C18.7572 102.013 18.5623 102.615 18.2244 103.054C17.8866 103.493 17.4334 103.733 16.9647 103.721C16.4959 103.709 16.05 103.445 15.7249 102.989C15.3998 102.533 15.2223 101.921 15.2314 101.288C15.2404 100.655 15.4353 100.053 15.7731 99.6141C16.111 99.1751 16.5641 98.9354 17.0329 98.9476Z" fill="#001133"/>
<path d="M17.3283 81.3844C17.5604 81.3904 17.7894 81.4582 18.0021 81.5837C18.2148 81.7092 18.4071 81.8901 18.5681 82.1159C18.7291 82.3418 18.8555 82.6083 18.9402 82.9002C19.0248 83.1921 19.0661 83.5036 19.0616 83.817C19.0526 84.4499 18.8577 85.0521 18.5199 85.4911C18.182 85.93 17.7289 86.1697 17.2601 86.1575C16.7914 86.1453 16.3454 85.8822 16.0203 85.426C15.6953 84.9698 15.5177 84.3579 15.5268 83.7249C15.5312 83.4115 15.5814 83.1024 15.6744 82.8151C15.7673 82.5279 15.9013 82.2682 16.0686 82.0508C16.2359 81.8335 16.4332 81.6628 16.6494 81.5485C16.8655 81.4341 17.0962 81.3783 17.3283 81.3844Z" fill="#001133"/>
<path d="M17.5827 63.5797C17.8148 63.5857 18.0438 63.6534 18.2565 63.7789C18.4692 63.9045 18.6615 64.0854 18.8225 64.3113C18.9835 64.5371 19.1099 64.8036 19.1946 65.0955C19.2792 65.3874 19.3205 65.6989 19.316 66.0123C19.307 66.6453 19.1121 67.2474 18.7743 67.6864C18.4364 68.1253 17.9833 68.365 17.5145 68.3528C17.0458 68.3406 16.5998 68.0775 16.2747 67.6213C15.9497 67.1651 15.7721 66.5532 15.7812 65.9202C15.7856 65.6068 15.8358 65.2977 15.9288 65.0104C16.0217 64.7232 16.1557 64.4635 16.323 64.2461C16.4902 64.0288 16.6876 63.8581 16.9038 63.7437C17.1199 63.6294 17.3506 63.5736 17.5827 63.5797Z" fill="#001133"/>
<path d="M17.7997 45.7136C18.2634 45.7256 18.7045 45.986 19.0261 46.4372C19.3477 46.8885 19.5233 47.4938 19.5143 48.1199C19.5054 48.746 19.3126 49.3418 18.9784 49.776C18.6442 50.2102 18.1959 50.4473 17.7323 50.4352C17.2686 50.4231 16.8274 50.1628 16.5059 49.7116C16.1843 49.2603 16.0087 48.655 16.0176 48.0288C16.0266 47.4027 16.2194 46.807 16.5536 46.3728C16.8878 45.9386 17.336 45.7015 17.7997 45.7136Z" fill="#001133"/>
<path d="M18.0558 27.7972C18.5178 27.8093 18.9573 28.0686 19.2777 28.5183C19.5981 28.9679 19.7731 29.571 19.7642 30.1948C19.7553 30.8187 19.5632 31.4122 19.2302 31.8448C18.8972 32.2775 18.4506 32.5137 17.9886 32.5017C17.5266 32.4896 17.087 32.2303 16.7666 31.7807C16.4462 31.331 16.2713 30.7279 16.2802 30.1041C16.2891 29.4802 16.4812 28.8867 16.8141 28.4541C17.1471 28.0215 17.5938 27.7852 18.0558 27.7972Z" fill="#001133"/>
<path d="M18.3292 10.0099C18.7878 10.0219 19.2242 10.2793 19.5422 10.7257C19.8603 11.172 20.034 11.7707 20.0252 12.39C20.0163 13.0093 19.8256 13.5985 19.4951 14.028C19.1645 14.4574 18.7211 14.692 18.2625 14.6801C17.8038 14.6681 17.3675 14.4106 17.0495 13.9643C16.7314 13.5179 16.5577 12.9192 16.5666 12.2999C16.5754 11.6806 16.7661 11.0914 17.0967 10.662C17.4272 10.2325 17.8706 9.99799 18.3292 10.0099Z" fill="#001133"/>
<path d="M24.265 107.793C24.7253 107.805 25.1633 108.063 25.4825 108.511C25.8017 108.959 25.976 109.56 25.9672 110.181C25.9583 110.803 25.7669 111.394 25.4352 111.825C25.1034 112.257 24.6584 112.492 24.198 112.48C23.7377 112.468 23.2998 112.21 22.9805 111.762C22.6613 111.314 22.487 110.713 22.4959 110.091C22.5048 109.469 22.6961 108.878 23.0279 108.447C23.3597 108.016 23.8047 107.781 24.265 107.793Z" fill="#001133"/>
<path d="M24.5475 90.2635C25.0095 90.2756 25.4491 90.5349 25.7695 90.9845C26.0898 91.4342 26.2648 92.0373 26.2559 92.6611C26.247 93.285 26.0549 93.8785 25.7219 94.3111C25.3889 94.7437 24.9423 94.98 24.4803 94.968C24.2515 94.962 24.0259 94.8953 23.8162 94.7716C23.6066 94.6479 23.417 94.4696 23.2584 94.2469C23.0997 94.0243 22.9751 93.7616 22.8916 93.474C22.8082 93.1863 22.7675 92.8793 22.7719 92.5704C22.7763 92.2615 22.8257 91.9568 22.9173 91.6737C23.009 91.3905 23.141 91.1346 23.3059 90.9204C23.4708 90.7062 23.6653 90.5379 23.8783 90.4252C24.0914 90.3125 24.3187 90.2576 24.5475 90.2635Z" fill="#001133"/>
<path d="M24.8246 72.6653C25.2883 72.6774 25.7294 72.9377 26.051 73.389C26.3726 73.8403 26.5482 74.4456 26.5392 75.0717C26.5303 75.6978 26.3375 76.2935 26.0033 76.7277C25.6691 77.1619 25.2209 77.399 24.7572 77.387C24.2935 77.3749 23.8523 77.1146 23.5307 76.6633C23.2092 76.212 23.0336 75.6067 23.0425 74.9806C23.0515 74.3545 23.2442 73.7588 23.5784 73.3246C23.9126 72.8904 24.3609 72.6533 24.8246 72.6653Z" fill="#001133"/>
<path d="M25.1051 54.7924C25.5603 54.8042 25.9935 55.0598 26.3092 55.5029C26.6249 55.9459 26.7973 56.5402 26.7886 57.1549C26.7798 57.7697 26.5905 58.3546 26.2623 58.7809C25.9342 59.2072 25.4941 59.44 25.0389 59.4281C24.5836 59.4163 24.1505 59.1607 23.8348 58.7177C23.519 58.2746 23.3466 57.6803 23.3554 57.0655C23.3642 56.4508 23.5534 55.8659 23.8816 55.4396C24.2097 55.0133 24.6498 54.7805 25.1051 54.7924Z" fill="#001133"/>
<path d="M25.3846 37.0055C25.8382 37.0173 26.2697 37.272 26.5843 37.7134C26.8988 38.1549 27.0706 38.7469 27.0618 39.3594C27.0531 39.9718 26.8645 40.5545 26.5376 40.9792C26.2107 41.404 25.7722 41.6359 25.3186 41.6241C24.865 41.6123 24.4335 41.3577 24.119 40.9162C23.8044 40.4748 23.6326 39.8827 23.6414 39.2703C23.6501 38.6578 23.8387 38.0751 24.1656 37.6504C24.4926 37.2257 24.931 36.9937 25.3846 37.0055Z" fill="#001133"/>
<path d="M25.5955 19.1308C25.8184 19.1366 26.0383 19.2017 26.2426 19.3222C26.4469 19.4428 26.6317 19.6165 26.7862 19.8335C26.9408 20.0504 27.0623 20.3063 27.1436 20.5867C27.2249 20.867 27.2646 21.1662 27.2603 21.4672C27.2516 22.0751 27.0644 22.6534 26.7399 23.075C26.4155 23.4966 25.9802 23.7268 25.53 23.7151C25.0798 23.7034 24.6515 23.4506 24.3393 23.0125C24.0271 22.5743 23.8566 21.9867 23.8653 21.3788C23.8696 21.0778 23.9177 20.7808 24.007 20.505C24.0963 20.2291 24.2249 19.9797 24.3856 19.7709C24.5463 19.5622 24.7358 19.3982 24.9434 19.2884C25.151 19.1786 25.3726 19.125 25.5955 19.1308Z" fill="#001133"/>
<path d="M31.5263 103.388C31.3182 103.723 31 103.909 30.6418 103.907C30.2836 103.905 29.9147 103.714 29.6163 103.375C29.3179 103.037 29.1145 102.58 29.0507 102.104C28.9868 101.628 29.0679 101.172 29.2761 100.837C29.4842 100.503 29.8024 100.316 30.1606 100.318C30.5188 100.32 30.8877 100.512 31.1861 100.85C31.4845 101.188 31.688 101.645 31.7518 102.121C31.8156 102.597 31.7345 103.053 31.5263 103.388Z" fill="#001133"/>
<path d="M31.7855 86.0861C31.6796 86.2471 31.5458 86.3719 31.3918 86.4534C31.2378 86.5348 31.0666 86.5713 30.888 86.5608C30.7093 86.5503 30.5268 86.4929 30.3507 86.392C30.1746 86.291 30.0084 86.1485 29.8617 85.9726C29.7149 85.7966 29.5905 85.5907 29.4955 85.3665C29.4004 85.1423 29.3366 84.9043 29.3078 84.666C29.2789 84.4277 29.2855 84.1939 29.3271 83.9778C29.3688 83.7616 29.4448 83.5675 29.5507 83.4065C29.6566 83.2454 29.7904 83.1206 29.9444 83.0392C30.0984 82.9577 30.2696 82.9212 30.4482 82.9318C30.6269 82.9423 30.8095 82.9996 30.9856 83.1006C31.1617 83.2015 31.3278 83.344 31.4745 83.52C31.6213 83.6959 31.7457 83.9018 31.8408 84.126C31.9358 84.3502 31.9996 84.5882 32.0285 84.8265C32.0573 85.0648 32.0508 85.2987 32.0091 85.5148C31.9674 85.7309 31.8914 85.9251 31.7855 86.0861Z" fill="#001133"/>
<path d="M32.0464 68.0909C31.8381 68.4285 31.5193 68.6185 31.1604 68.6192C30.8014 68.6198 30.4316 68.4309 30.1323 68.0942C29.8331 67.7574 29.6288 67.3003 29.5645 66.8235C29.5002 66.3466 29.5812 65.889 29.7895 65.5514C29.9979 65.2137 30.3167 65.0237 30.6756 65.0231C31.0346 65.0224 31.4044 65.2113 31.7037 65.5481C32.0029 65.8848 32.2072 66.3419 32.2715 66.8188C32.3358 67.2956 32.2548 67.7532 32.0464 68.0909Z" fill="#001133"/>
<path d="M32.387 32.3041C32.157 32.5956 31.8338 32.7273 31.4884 32.6705C31.143 32.6136 30.8036 32.3728 30.5451 32.0009C30.417 31.8167 30.3127 31.606 30.2379 31.3806C30.1632 31.1553 30.1196 30.9198 30.1095 30.6875C30.0995 30.4552 30.1232 30.2308 30.1794 30.027C30.2356 29.8232 30.3231 29.644 30.4369 29.4997C30.6669 29.2082 30.9901 29.0764 31.3355 29.1332C31.6809 29.1901 32.0202 29.431 32.2788 29.8029C32.4069 29.987 32.5112 30.1978 32.5859 30.4231C32.6607 30.6485 32.7043 30.884 32.7143 31.1162C32.7244 31.3485 32.7006 31.5729 32.6444 31.7768C32.5883 31.9806 32.5008 32.1598 32.387 32.3041Z" fill="#001133"/>
<path d="M32.2339 50.2844C32.131 50.4355 32.0021 50.5513 31.8543 50.6255C31.7066 50.6996 31.543 50.7305 31.3729 50.7164C31.2028 50.7023 31.0295 50.6435 30.8629 50.5433C30.6963 50.4432 30.5397 50.3036 30.402 50.1326C30.2644 49.9616 30.1483 49.7626 30.0605 49.5468C29.9726 49.331 29.9148 49.1028 29.8902 48.8751C29.8656 48.6473 29.8747 48.4246 29.917 48.2197C29.9594 48.0147 30.0342 47.8314 30.1371 47.6804C30.24 47.5293 30.3689 47.4134 30.5167 47.3393C30.6644 47.2651 30.828 47.2343 30.9981 47.2484C31.1682 47.2625 31.3415 47.3213 31.5081 47.4214C31.6747 47.5216 31.8313 47.6612 31.9689 47.8322C32.1066 48.0032 32.2227 48.2022 32.3105 48.418C32.3984 48.6337 32.4562 48.862 32.4808 49.0897C32.5054 49.3174 32.4963 49.5401 32.454 49.7451C32.4116 49.9501 32.3368 50.1334 32.2339 50.2844Z" fill="#001133"/>
</svg>
